<?xml version="1.0" encoding="UTF-8" standalone="no"?>
<svg
   xmlns:dc="http://purl.org/dc/elements/1.1/"
   xmlns:cc="http://creativecommons.org/ns#"
   xmlns:rdf="http://www.w3.org/1999/02/22-rdf-syntax-ns#"
   xmlns:svg="http://www.w3.org/2000/svg"
   xmlns="http://www.w3.org/2000/svg"
   version="1.1"
   id="svg4294"
   viewBox="0 0 512.00001 512.00001"
   height="512"
   width="512">
  <defs
     id="defs4296" />
  <metadata
     id="metadata4299">
    <rdf:RDF>
      <cc:Work
         rdf:about="">
        <dc:format>image/svg+xml</dc:format>
        <dc:type
           rdf:resource="http://purl.org/dc/dcmitype/StillImage" />
        <dc:title></dc:title>
      </cc:Work>
    </rdf:RDF>
  </metadata>
  <g
     transform="translate(0,-540.36216)"
     id="layer1">
    <text
       id="text4263"
       y="992.36218"
       x="240"
       style="font-style:normal;font-weight:normal;font-size:40px;line-height:125%;font-family:sans-serif;letter-spacing:0px;word-spacing:0px;fill:#000000;fill-opacity:1;stroke:none;stroke-width:1px;stroke-linecap:butt;stroke-linejoin:miter;stroke-opacity:1"
       xml:space="preserve"><tspan
         style="font-style:normal;font-variant:normal;font-weight:normal;font-stretch:normal;font-family:script;-inkscape-font-specification:script"
         y="992.36218"
         x="240"
         id="tspan4265" /></text>
    <path
       id="path7154"
       d="m 246.47722,603.65138 0,353.55343"
       style="fill:none;fill-rule:evenodd;stroke:#ee4938;stroke-width:5;stroke-linecap:butt;stroke-linejoin:miter;stroke-miterlimit:4;stroke-dasharray:none;stroke-opacity:1" />
    <rect
       y="692.24792"
       x="59.885754"
       height="200.02544"
       width="140.2285"
       id="rect7158"
       style="opacity:1;fill:none;fill-opacity:1;stroke:#ee4938;stroke-width:4.77150536;stroke-linecap:round;stroke-linejoin:round;stroke-miterlimit:4;stroke-dasharray:none;stroke-dashoffset:0;stroke-opacity:1" />
    <path
       id="path7164"
       d="m 130,692.36216 0,197.77664"
       style="fill:none;fill-rule:evenodd;stroke:#ee4938;stroke-width:4.7407403;stroke-linecap:butt;stroke-linejoin:miter;stroke-miterlimit:4;stroke-dasharray:none;stroke-opacity:1" />
    <path
       id="path7166"
       d="m 60,792.36216 140,0"
       style="fill:none;fill-rule:evenodd;stroke:#ee4938;stroke-width:5;stroke-linecap:butt;stroke-linejoin:miter;stroke-miterlimit:4;stroke-dasharray:none;stroke-opacity:1" />
    <circle
       r="65.726067"
       cy="678.87457"
       cx="346.51236"
       id="path7170"
       style="opacity:1;fill:none;fill-opacity:1;stroke:#ee4938;stroke-width:6.57260656;stroke-linecap:round;stroke-linejoin:round;stroke-miterlimit:4;stroke-dasharray:none;stroke-dashoffset:0;stroke-opacity:1" />
    <path
       style="opacity:1;fill:#ffffff;fill-opacity:1;stroke:#ffffff;stroke-width:6.57260656;stroke-linecap:round;stroke-linejoin:round;stroke-miterlimit:4;stroke-dasharray:none;stroke-dashoffset:0;stroke-opacity:1"
       d="M 425.38281 125.36719 A 39.435638 13.145213 0 0 0 385.94727 138.51172 A 39.435638 13.145213 0 0 0 386.01172 139.12109 A 53.821438 25.936226 0 0 0 336.0293 164.99023 A 53.821438 25.936226 0 0 0 366.02539 188.21094 A 33.579319 22.956377 0 0 0 364.24023 195.53125 A 33.579319 22.956377 0 0 0 397.81836 218.48633 A 33.579319 22.956377 0 0 0 415.08008 215.19336 A 44.243923 36.276718 0 0 0 441.63867 222.51172 A 44.243923 36.276718 0 0 0 485.88281 186.23633 A 44.243923 36.276718 0 0 0 485.79688 184.25195 A 37.180279 26.557341 0 0 0 497.4082 164.99023 A 37.180279 26.557341 0 0 0 464.79688 138.65625 A 39.435638 13.145213 0 0 0 464.81836 138.51172 A 39.435638 13.145213 0 0 0 425.38281 125.36719 z "
       transform="translate(0,540.36216)"
       id="path14159" />
    <path
       id="path7172"
       transform="translate(0,540.36216)"
       d="M 425.38281 125.36719 A 39.435638 13.145213 0 0 0 385.94727 138.51172 A 39.435638 13.145213 0 0 0 386.01172 139.12109 A 53.821438 25.936226 0 0 0 336.0293 164.99023 A 53.821438 25.936226 0 0 0 366.02539 188.21094 A 33.579319 22.956377 0 0 0 364.24023 195.53125 A 33.579319 22.956377 0 0 0 397.81836 218.48633 A 33.579319 22.956377 0 0 0 415.08008 215.19336 A 44.243923 36.276718 0 0 0 441.63867 222.51172 A 44.243923 36.276718 0 0 0 485.88281 186.23633 A 44.243923 36.276718 0 0 0 485.79688 184.25195 A 37.180279 26.557341 0 0 0 497.4082 164.99023 A 37.180279 26.557341 0 0 0 464.79688 138.65625 A 39.435638 13.145213 0 0 0 464.81836 138.51172 A 39.435638 13.145213 0 0 0 425.38281 125.36719 z "
       style="opacity:0.5;fill:#ee4938;fill-opacity:1;stroke:#ee4938;stroke-width:6.57260656;stroke-linecap:round;stroke-linejoin:round;stroke-miterlimit:4;stroke-dasharray:none;stroke-dashoffset:0;stroke-opacity:1" />
    <path
       id="path7184"
       d="m 316.125,869.92711 15.93441,-26.55736"
       style="fill:none;fill-rule:evenodd;stroke:#ee4938;stroke-width:6.57260656;stroke-linecap:butt;stroke-linejoin:miter;stroke-miterlimit:4;stroke-dasharray:none;stroke-opacity:1" />
    <path
       style="fill:none;fill-rule:evenodd;stroke:#ee4938;stroke-width:6.57260656;stroke-linecap:butt;stroke-linejoin:miter;stroke-miterlimit:4;stroke-dasharray:none;stroke-opacity:1"
       d="m 342.41543,869.92711 15.9344,-26.55736"
       id="path7186" />
    <path
       id="path7188"
       d="m 342.41543,843.63668 15.9344,-26.55735"
       style="fill:none;fill-rule:evenodd;stroke:#ee4938;stroke-width:6.57260656;stroke-linecap:butt;stroke-linejoin:miter;stroke-miterlimit:4;stroke-dasharray:none;stroke-opacity:1" />
    <path
       style="fill:none;fill-rule:evenodd;stroke:#ee4938;stroke-width:6.57260656;stroke-linecap:butt;stroke-linejoin:miter;stroke-miterlimit:4;stroke-dasharray:none;stroke-opacity:1"
       d="m 368.70585,843.63668 15.93441,-26.55735"
       id="path7190" />
    <path
       id="path7192"
       d="m 394.99628,843.63668 15.93441,-26.55735"
       style="fill:none;fill-rule:evenodd;stroke:#ee4938;stroke-width:6.57260656;stroke-linecap:butt;stroke-linejoin:miter;stroke-miterlimit:4;stroke-dasharray:none;stroke-opacity:1" />
    <path
       style="fill:none;fill-rule:evenodd;stroke:#ee4938;stroke-width:6.57260656;stroke-linecap:butt;stroke-linejoin:miter;stroke-miterlimit:4;stroke-dasharray:none;stroke-opacity:1"
       d="m 368.70585,869.92711 15.93441,-26.55736"
       id="path7194" />
    <path
       id="path7196"
       d="m 394.99628,869.92711 15.93441,-26.55736"
       style="fill:none;fill-rule:evenodd;stroke:#ee4938;stroke-width:6.57260656;stroke-linecap:butt;stroke-linejoin:miter;stroke-miterlimit:4;stroke-dasharray:none;stroke-opacity:1" />
    <path
       style="fill:none;fill-rule:evenodd;stroke:#ee4938;stroke-width:6.57260656;stroke-linecap:butt;stroke-linejoin:miter;stroke-miterlimit:4;stroke-dasharray:none;stroke-opacity:1"
       d="m 421.28671,843.63668 15.9344,-26.55735"
       id="path7198" />
    <path
       id="path7200"
       d="m 421.28671,817.34625 15.9344,-26.55735"
       style="fill:none;fill-rule:evenodd;stroke:#ee4938;stroke-width:6.57260656;stroke-linecap:butt;stroke-linejoin:miter;stroke-miterlimit:4;stroke-dasharray:none;stroke-opacity:1" />
    <path
       style="fill:none;fill-rule:evenodd;stroke:#ee4938;stroke-width:6.57260656;stroke-linecap:butt;stroke-linejoin:miter;stroke-miterlimit:4;stroke-dasharray:none;stroke-opacity:1"
       d="M 394.99628,817.34625 410.93069,790.7889"
       id="path7202" />
    <path
       id="path7204"
       d="M 368.70585,817.34625 384.64026,790.7889"
       style="fill:none;fill-rule:evenodd;stroke:#ee4938;stroke-width:6.57260656;stroke-linecap:butt;stroke-linejoin:miter;stroke-miterlimit:4;stroke-dasharray:none;stroke-opacity:1" />
    <path
       style="fill:none;fill-rule:evenodd;stroke:#ee4938;stroke-width:6.57260656;stroke-linecap:butt;stroke-linejoin:miter;stroke-miterlimit:4;stroke-dasharray:none;stroke-opacity:1"
       d="m 342.41543,791.05583 15.9344,-26.55736"
       id="path7206" />
    <path
       style="fill:none;fill-rule:evenodd;stroke:#ee4938;stroke-width:6.57260656;stroke-linecap:butt;stroke-linejoin:miter;stroke-miterlimit:4;stroke-dasharray:none;stroke-opacity:1"
       d="m 342.41543,817.34625 15.9344,-26.55735"
       id="path7208" />
    <path
       style="fill:none;fill-rule:evenodd;stroke:#ee4938;stroke-width:6.57260656;stroke-linecap:butt;stroke-linejoin:miter;stroke-miterlimit:4;stroke-dasharray:none;stroke-opacity:1"
       d="m 368.70585,791.05583 15.93441,-26.55736"
       id="path7210" />
    <path
       style="fill:none;fill-rule:evenodd;stroke:#ee4938;stroke-width:6.57260656;stroke-linecap:butt;stroke-linejoin:miter;stroke-miterlimit:4;stroke-dasharray:none;stroke-opacity:1"
       d="m 394.99628,791.05583 15.93441,-26.55736"
       id="path7212" />
    <path
       style="fill:none;fill-rule:evenodd;stroke:#ee4938;stroke-width:6.57260656;stroke-linecap:butt;stroke-linejoin:miter;stroke-miterlimit:4;stroke-dasharray:none;stroke-opacity:1"
       d="m 421.28671,791.05583 15.9344,-26.55736"
       id="path7214" />
  </g>
</svg>
