<?xml version="1.0" encoding="UTF-8" standalone="no"?>
<svg
   xmlns:dc="http://purl.org/dc/elements/1.1/"
   xmlns:cc="http://creativecommons.org/ns#"
   xmlns:rdf="http://www.w3.org/1999/02/22-rdf-syntax-ns#"
   xmlns:svg="http://www.w3.org/2000/svg"
   xmlns="http://www.w3.org/2000/svg"
   version="1.1"
   id="svg5425"
   viewBox="0 0 512.00001 512.00001"
   height="512"
   width="512">
  <defs
     id="defs5427" />
  <metadata
     id="metadata5430">
    <rdf:RDF>
      <cc:Work
         rdf:about="">
        <dc:format>image/svg+xml</dc:format>
        <dc:type
           rdf:resource="http://purl.org/dc/dcmitype/StillImage" />
        <dc:title></dc:title>
      </cc:Work>
    </rdf:RDF>
  </metadata>
  <g
     transform="translate(0,-540.36214)"
     id="layer1">
    <g
       transform="matrix(0.66840196,0,0,0.66840196,9.662228,232.04086)"
       id="g10111">
      <rect
         y="535.04663"
         x="256.28473"
         height="385.78598"
         width="192.89301"
         id="rect7582"
         style="fill:#ee4938;fill-opacity:0.0627451;stroke:#ee4938;stroke-width:5.90971184;stroke-linecap:round;stroke-linejoin:round;stroke-miterlimit:4;stroke-dasharray:none;stroke-opacity:1"
         transform="matrix(0.99999998,-2.133606e-4,0,1,0,0)" />
      <rect
         style="opacity:0.5;fill:#ee4938;fill-opacity:1;stroke:none;stroke-width:5;stroke-linecap:round;stroke-linejoin:round;stroke-miterlimit:4;stroke-dasharray:none;stroke-opacity:1"
         id="rect7586"
         width="149.11676"
         height="11.579429"
         x="275.90491"
         y="610.98248"
         transform="matrix(0.99999998,-2.133606e-4,0,1,0,0)" />
      <rect
         y="629.75159"
         x="275.90491"
         height="11.579429"
         width="119.26819"
         id="rect7588"
         style="opacity:0.5;fill:#ee4938;fill-opacity:1;stroke:none;stroke-width:5;stroke-linecap:round;stroke-linejoin:round;stroke-miterlimit:4;stroke-dasharray:none;stroke-opacity:1"
         transform="matrix(0.99999998,-2.133606e-4,0,1,0,0)" />
      <rect
         style="opacity:0.5;fill:#ee4938;fill-opacity:1;stroke:none;stroke-width:5;stroke-linecap:round;stroke-linejoin:round;stroke-miterlimit:4;stroke-dasharray:none;stroke-opacity:1"
         id="rect7590"
         width="141.95308"
         height="11.579429"
         x="275.90491"
         y="648.52057"
         transform="matrix(0.99999998,-2.133606e-4,0,1,0,0)" />
      <rect
         y="667.28967"
         x="275.90491"
         height="11.579429"
         width="102.55301"
         id="rect7592"
         style="opacity:0.5;fill:#ee4938;fill-opacity:1;stroke:none;stroke-width:5;stroke-linecap:round;stroke-linejoin:round;stroke-miterlimit:4;stroke-dasharray:none;stroke-opacity:1"
         transform="matrix(0.99999998,-2.133606e-4,0,1,0,0)" />
      <rect
         y="555.88403"
         x="315.37677"
         height="24.712791"
         width="91.807518"
         id="rect7594"
         style="opacity:0.5;fill:#ee4938;fill-opacity:1;stroke:none;stroke-width:5;stroke-linecap:round;stroke-linejoin:round;stroke-miterlimit:4;stroke-dasharray:none;stroke-opacity:1"
         transform="matrix(0.99999998,-2.133606e-4,0,1,0,0)" />
      <rect
         style="opacity:0.5;fill:#ee4938;fill-opacity:1;stroke:none;stroke-width:5;stroke-linecap:round;stroke-linejoin:round;stroke-miterlimit:4;stroke-dasharray:none;stroke-opacity:1"
         id="rect7596"
         width="29.722527"
         height="24.712791"
         x="275.90491"
         y="555.88403"
         transform="matrix(0.99999998,-2.133606e-4,0,1,0,0)" />
      <rect
         style="opacity:0.5;fill:#ee4938;fill-opacity:1;stroke:none;stroke-width:5;stroke-linecap:round;stroke-linejoin:round;stroke-miterlimit:4;stroke-dasharray:none;stroke-opacity:1"
         id="rect7598"
         width="153.65251"
         height="82.73597"
         x="275.90491"
         y="696.55627"
         transform="matrix(0.99999998,-2.133606e-4,0,1,0,0)" />
      <rect
         y="800.09326"
         x="275.90491"
         height="11.579429"
         width="134.78943"
         id="rect7600"
         style="opacity:0.5;fill:#ee4938;fill-opacity:1;stroke:none;stroke-width:5;stroke-linecap:round;stroke-linejoin:round;stroke-miterlimit:4;stroke-dasharray:none;stroke-opacity:1"
         transform="matrix(0.99999998,-2.133606e-4,0,1,0,0)" />
      <rect
         style="opacity:0.5;fill:#ee4938;fill-opacity:1;stroke:none;stroke-width:5;stroke-linecap:round;stroke-linejoin:round;stroke-miterlimit:4;stroke-dasharray:none;stroke-opacity:1"
         id="rect7602"
         width="104.94088"
         height="11.579429"
         x="275.90491"
         y="837.91541"
         transform="matrix(0.99999998,-2.133606e-4,0,1,0,0)" />
      <rect
         y="819.00433"
         x="275.90491"
         height="11.579429"
         width="149.11676"
         id="rect7604"
         style="opacity:0.5;fill:#ee4938;fill-opacity:1;stroke:none;stroke-width:5;stroke-linecap:round;stroke-linejoin:round;stroke-miterlimit:4;stroke-dasharray:none;stroke-opacity:1"
         transform="matrix(0.99999998,-2.133606e-4,0,1,0,0)" />
      <rect
         style="fill:#ffffff;fill-opacity:1;stroke:#ee4938;stroke-width:5.98422194;stroke-linecap:round;stroke-linejoin:round;stroke-miterlimit:4;stroke-dasharray:none;stroke-opacity:1"
         id="rect7634"
         width="197.78769"
         height="385.78598"
         x="63.792103"
         y="591.78387"
         transform="matrix(0.97525291,-0.2210922,0,1,0,0)" />
      <rect
         style="opacity:0.5;fill:#ee4938;fill-opacity:1;stroke:none;stroke-width:5;stroke-linecap:round;stroke-linejoin:round;stroke-miterlimit:4;stroke-dasharray:none;stroke-opacity:1"
         id="rect7636"
         width="133.83282"
         height="24.712791"
         x="96.407486"
         y="672.78015"
         transform="matrix(0.97146327,-0.23719003,0,1,0,0)" />
      <g
         id="g7638"
         transform="matrix(1.1819424,-0.39198665,0,1.1819424,-60.1099,-294.36494)">
        <rect
           transform="matrix(0.9961947,0.08715574,0,1,0,0)"
           style="opacity:0.5;fill:#ee4938;fill-opacity:1;stroke:none;stroke-width:5;stroke-linecap:round;stroke-linejoin:round;stroke-miterlimit:4;stroke-dasharray:none;stroke-opacity:1"
           id="rect7640"
           width="126.64436"
           height="9.7969484"
           x="122.48009"
           y="865.36182" />
        <rect
           transform="matrix(0.9961947,0.08715574,0,1,0,0)"
           y="881.2417"
           x="135.15523"
           height="9.7969484"
           width="101.29408"
           id="rect7642"
           style="opacity:0.5;fill:#ee4938;fill-opacity:1;stroke:none;stroke-width:5;stroke-linecap:round;stroke-linejoin:round;stroke-miterlimit:4;stroke-dasharray:none;stroke-opacity:1" />
        <rect
           transform="matrix(0.9961947,0.08715574,0,1,0,0)"
           style="opacity:0.5;fill:#ee4938;fill-opacity:1;stroke:none;stroke-width:5;stroke-linecap:round;stroke-linejoin:round;stroke-miterlimit:4;stroke-dasharray:none;stroke-opacity:1"
           id="rect7644"
           width="120.56029"
           height="9.7969484"
           x="125.52213"
           y="897.12152" />
        <rect
           transform="matrix(0.9961947,0.08715574,0,1,0,0)"
           y="913.0014"
           x="142.25331"
           height="9.7969484"
           width="87.097931"
           id="rect7646"
           style="opacity:0.5;fill:#ee4938;fill-opacity:1;stroke:none;stroke-width:5;stroke-linecap:round;stroke-linejoin:round;stroke-miterlimit:4;stroke-dasharray:none;stroke-opacity:1" />
      </g>
      <rect
         style="fill:none;fill-opacity:1;stroke:#ee4938;stroke-width:5.93220758;stroke-linecap:round;stroke-linejoin:round;stroke-miterlimit:4;stroke-dasharray:none;stroke-opacity:1"
         id="rect7606"
         width="194.36433"
         height="385.78598"
         x="451.95517"
         y="479.48883"
         transform="matrix(0.99243,0.12281166,0,1,0,0)" />
      <g
         id="g7608"
         transform="matrix(1.1819424,0.06189265,0,1.1819424,136.6876,-281.09245)">
        <rect
           transform="matrix(0.99607708,0.08848981,0,1,0,0)"
           style="opacity:0.5;fill:#ee4938;fill-opacity:1;stroke:none;stroke-width:5;stroke-linecap:round;stroke-linejoin:round;stroke-miterlimit:4;stroke-dasharray:none;stroke-opacity:1"
           id="rect7610"
           width="126.65931"
           height="9.7969484"
           x="281.5462"
           y="716.23083" />
        <rect
           transform="matrix(0.99607708,0.08848981,0,1,0,0)"
           y="732.11072"
           x="281.5462"
           height="9.7969484"
           width="101.30605"
           id="rect7612"
           style="opacity:0.5;fill:#ee4938;fill-opacity:1;stroke:none;stroke-width:5;stroke-linecap:round;stroke-linejoin:round;stroke-miterlimit:4;stroke-dasharray:none;stroke-opacity:1" />
        <rect
           transform="matrix(0.99607708,0.08848981,0,1,0,0)"
           style="opacity:0.5;fill:#ee4938;fill-opacity:1;stroke:none;stroke-width:5;stroke-linecap:round;stroke-linejoin:round;stroke-miterlimit:4;stroke-dasharray:none;stroke-opacity:1"
           id="rect7614"
           width="120.57452"
           height="9.7969484"
           x="281.5462"
           y="747.99054" />
        <rect
           transform="matrix(0.99607708,0.08848981,0,1,0,0)"
           y="763.87042"
           x="281.5462"
           height="9.7969484"
           width="87.108215"
           id="rect7616"
           style="opacity:0.5;fill:#ee4938;fill-opacity:1;stroke:none;stroke-width:5;stroke-linecap:round;stroke-linejoin:round;stroke-miterlimit:4;stroke-dasharray:none;stroke-opacity:1" />
      </g>
      <g
         id="g7618"
         transform="matrix(1.1819424,0.06189265,0,1.1819424,136.6876,-281.09245)">
        <rect
           transform="matrix(0.99607708,0.08848981,0,1,0,0)"
           y="669.61401"
           x="315.07367"
           height="20.908627"
           width="77.981033"
           id="rect7620"
           style="opacity:0.5;fill:#ee4938;fill-opacity:1;stroke:none;stroke-width:5;stroke-linecap:round;stroke-linejoin:round;stroke-miterlimit:4;stroke-dasharray:none;stroke-opacity:1" />
        <rect
           transform="matrix(0.99607708,0.08848981,0,1,0,0)"
           style="opacity:0.5;fill:#ee4938;fill-opacity:1;stroke:none;stroke-width:5;stroke-linecap:round;stroke-linejoin:round;stroke-miterlimit:4;stroke-dasharray:none;stroke-opacity:1"
           id="rect7622"
           width="25.246225"
           height="20.908627"
           x="281.5462"
           y="669.61401" />
      </g>
      <g
         id="g7626"
         transform="matrix(1.1819424,0.06189265,0,1.1819424,136.6876,-281.09245)">
        <rect
           transform="matrix(0.99607708,0.08848981,0,1,0,0)"
           y="876.23083"
           x="281.5462"
           height="9.7969484"
           width="114.48974"
           id="rect7628"
           style="opacity:0.5;fill:#ee4938;fill-opacity:1;stroke:none;stroke-width:5;stroke-linecap:round;stroke-linejoin:round;stroke-miterlimit:4;stroke-dasharray:none;stroke-opacity:1" />
        <rect
           transform="matrix(0.99607708,0.08848981,0,1,0,0)"
           style="opacity:0.5;fill:#ee4938;fill-opacity:1;stroke:none;stroke-width:5;stroke-linecap:round;stroke-linejoin:round;stroke-miterlimit:4;stroke-dasharray:none;stroke-opacity:1"
           id="rect7630"
           width="89.136475"
           height="9.7969484"
           x="281.5462"
           y="908.23083" />
        <rect
           transform="matrix(0.99607708,0.08848981,0,1,0,0)"
           y="892.23083"
           x="281.5462"
           height="9.7969484"
           width="126.65931"
           id="rect7632"
           style="opacity:0.5;fill:#ee4938;fill-opacity:1;stroke:none;stroke-width:5;stroke-linecap:round;stroke-linejoin:round;stroke-miterlimit:4;stroke-dasharray:none;stroke-opacity:1" />
      </g>
      <path
         style="opacity:0.5;fill:none;fill-rule:evenodd;stroke:#ee4938;stroke-width:11.81942368;stroke-linecap:butt;stroke-linejoin:miter;stroke-miterlimit:4;stroke-dasharray:none;stroke-opacity:1"
         d="m 484.6223,779.78189 19.8419,-24.47199 42.5183,-0.60808 19.8419,-21.63742 45.3529,-11.79787"
         id="path6418" />
      <g
         id="g6542"
         transform="translate(2788.2887,-92.71627)">
        <rect
           y="744.77271"
           x="-2297.3889"
           height="174.38454"
           width="87.52533"
           id="rect7302"
           style="fill:#ffffff;fill-opacity:1;stroke:#ee4938;stroke-width:5.00954056;stroke-linecap:round;stroke-linejoin:round;stroke-miterlimit:4;stroke-dasharray:none;stroke-opacity:1"
           transform="matrix(0.9961947,-0.08715574,0,1,0,0)" />
        <g
           id="g7304"
           transform="matrix(0.53426637,0,0,0.53426637,-2342.7073,576.51914)">
          <rect
             transform="matrix(0.9961947,-0.08715574,0,1,0,0)"
             y="762.80066"
             x="118.23677"
             height="9.7969484"
             width="126.64436"
             id="rect7306"
             style="opacity:0.5;fill:#ee4938;fill-opacity:1;stroke:none;stroke-width:5;stroke-linecap:round;stroke-linejoin:round;stroke-miterlimit:4;stroke-dasharray:none;stroke-opacity:1" />
          <rect
             transform="matrix(0.9961947,-0.08715574,0,1,0,0)"
             style="opacity:0.5;fill:#ee4938;fill-opacity:1;stroke:none;stroke-width:5;stroke-linecap:round;stroke-linejoin:round;stroke-miterlimit:4;stroke-dasharray:none;stroke-opacity:1"
             id="rect7308"
             width="101.29408"
             height="9.7969484"
             x="118.23677"
             y="778.68054" />
          <rect
             transform="matrix(0.9961947,-0.08715574,0,1,0,0)"
             y="794.56036"
             x="118.23677"
             height="9.7969484"
             width="120.56029"
             id="rect7310"
             style="opacity:0.5;fill:#ee4938;fill-opacity:1;stroke:none;stroke-width:5;stroke-linecap:round;stroke-linejoin:round;stroke-miterlimit:4;stroke-dasharray:none;stroke-opacity:1" />
          <rect
             transform="matrix(0.9961947,-0.08715574,0,1,0,0)"
             style="opacity:0.5;fill:#ee4938;fill-opacity:1;stroke:none;stroke-width:5;stroke-linecap:round;stroke-linejoin:round;stroke-miterlimit:4;stroke-dasharray:none;stroke-opacity:1"
             id="rect7312"
             width="87.097931"
             height="9.7969484"
             x="118.23677"
             y="810.44025" />
          <rect
             transform="matrix(0.9961947,-0.08715574,0,1,0,0)"
             style="opacity:0.5;fill:#ee4938;fill-opacity:1;stroke:none;stroke-width:5;stroke-linecap:round;stroke-linejoin:round;stroke-miterlimit:4;stroke-dasharray:none;stroke-opacity:1"
             id="rect7314"
             width="77.971825"
             height="20.908627"
             x="151.76027"
             y="716.18384" />
          <rect
             transform="matrix(0.9961947,-0.08715574,0,1,0,0)"
             y="716.18384"
             x="118.23677"
             height="20.908627"
             width="25.243244"
             id="rect7316"
             style="opacity:0.5;fill:#ee4938;fill-opacity:1;stroke:none;stroke-width:5;stroke-linecap:round;stroke-linejoin:round;stroke-miterlimit:4;stroke-dasharray:none;stroke-opacity:1" />
          <rect
             transform="matrix(0.9961947,-0.08715574,0,1,0,0)"
             y="833.20166"
             x="118.23677"
             height="70"
             width="130.49658"
             id="rect7318"
             style="opacity:0.5;fill:#ee4938;fill-opacity:1;stroke:none;stroke-width:5;stroke-linecap:round;stroke-linejoin:round;stroke-miterlimit:4;stroke-dasharray:none;stroke-opacity:1" />
          <rect
             transform="matrix(0.9961947,-0.08715574,0,1,0,0)"
             style="opacity:0.5;fill:#ee4938;fill-opacity:1;stroke:none;stroke-width:5;stroke-linecap:round;stroke-linejoin:round;stroke-miterlimit:4;stroke-dasharray:none;stroke-opacity:1"
             id="rect7320"
             width="114.47622"
             height="9.7969484"
             x="118.23677"
             y="922.80066" />
          <rect
             transform="matrix(0.9961947,-0.08715574,0,1,0,0)"
             y="954.80066"
             x="118.23677"
             height="9.7969484"
             width="89.125946"
             id="rect7322"
             style="opacity:0.5;fill:#ee4938;fill-opacity:1;stroke:none;stroke-width:5;stroke-linecap:round;stroke-linejoin:round;stroke-miterlimit:4;stroke-dasharray:none;stroke-opacity:1" />
          <rect
             transform="matrix(0.9961947,-0.08715574,0,1,0,0)"
             style="opacity:0.5;fill:#ee4938;fill-opacity:1;stroke:none;stroke-width:5;stroke-linecap:round;stroke-linejoin:round;stroke-miterlimit:4;stroke-dasharray:none;stroke-opacity:1"
             id="rect7324"
             width="126.64436"
             height="9.7969484"
             x="118.23677"
             y="938.80066" />
        </g>
        <rect
           style="fill:#ffffff;fill-opacity:1;stroke:#ee4938;stroke-width:5.0098362;stroke-linecap:round;stroke-linejoin:round;stroke-miterlimit:4;stroke-dasharray:none;stroke-opacity:1"
           id="rect7326"
           width="87.535667"
           height="174.38454"
           x="-2210.4167"
           y="1132.9745"
           transform="matrix(0.99607708,0.08848981,0,1,0,0)" />
        <g
           id="g7328"
           transform="matrix(0.53426637,0,0,0.53426637,-2342.7073,576.51914)">
          <rect
             transform="matrix(0.99607708,0.08848981,0,1,0,0)"
             style="opacity:0.5;fill:#ee4938;fill-opacity:1;stroke:none;stroke-width:5;stroke-linecap:round;stroke-linejoin:round;stroke-miterlimit:4;stroke-dasharray:none;stroke-opacity:1"
             id="rect7330"
             width="126.65931"
             height="9.7969484"
             x="281.5462"
             y="716.23083" />
          <rect
             transform="matrix(0.99607708,0.08848981,0,1,0,0)"
             y="732.11072"
             x="281.5462"
             height="9.7969484"
             width="101.30605"
             id="rect7332"
             style="opacity:0.5;fill:#ee4938;fill-opacity:1;stroke:none;stroke-width:5;stroke-linecap:round;stroke-linejoin:round;stroke-miterlimit:4;stroke-dasharray:none;stroke-opacity:1" />
          <rect
             transform="matrix(0.99607708,0.08848981,0,1,0,0)"
             style="opacity:0.5;fill:#ee4938;fill-opacity:1;stroke:none;stroke-width:5;stroke-linecap:round;stroke-linejoin:round;stroke-miterlimit:4;stroke-dasharray:none;stroke-opacity:1"
             id="rect7334"
             width="120.57452"
             height="9.7969484"
             x="281.5462"
             y="747.99054" />
          <rect
             transform="matrix(0.99607708,0.08848981,0,1,0,0)"
             y="763.87042"
             x="281.5462"
             height="9.7969484"
             width="87.108215"
             id="rect7336"
             style="opacity:0.5;fill:#ee4938;fill-opacity:1;stroke:none;stroke-width:5;stroke-linecap:round;stroke-linejoin:round;stroke-miterlimit:4;stroke-dasharray:none;stroke-opacity:1" />
        </g>
        <g
           id="g7338"
           transform="matrix(0.53426637,0,0,0.53426637,-2342.7073,576.51914)">
          <rect
             transform="matrix(0.99607708,0.08848981,0,1,0,0)"
             y="669.61401"
             x="315.07367"
             height="20.908627"
             width="77.981033"
             id="rect7340"
             style="opacity:0.5;fill:#ee4938;fill-opacity:1;stroke:none;stroke-width:5;stroke-linecap:round;stroke-linejoin:round;stroke-miterlimit:4;stroke-dasharray:none;stroke-opacity:1" />
          <rect
             transform="matrix(0.99607708,0.08848981,0,1,0,0)"
             style="opacity:0.5;fill:#ee4938;fill-opacity:1;stroke:none;stroke-width:5;stroke-linecap:round;stroke-linejoin:round;stroke-miterlimit:4;stroke-dasharray:none;stroke-opacity:1"
             id="rect7342"
             width="25.246225"
             height="20.908627"
             x="281.5462"
             y="669.61401" />
        </g>
        <rect
           y="1204.9122"
           x="-2201.5129"
           height="37.398647"
           width="69.728172"
           id="rect7344"
           style="opacity:0.5;fill:#ee4938;fill-opacity:1;stroke:none;stroke-width:5;stroke-linecap:round;stroke-linejoin:round;stroke-miterlimit:4;stroke-dasharray:none;stroke-opacity:1"
           transform="matrix(0.99607708,0.08848981,0,1,0,0)" />
        <g
           id="g7346"
           transform="matrix(0.53426637,0,0,0.53426637,-2342.7073,576.51914)">
          <rect
             transform="matrix(0.99607708,0.08848981,0,1,0,0)"
             y="876.23083"
             x="281.5462"
             height="9.7969484"
             width="114.48974"
             id="rect7348"
             style="opacity:0.5;fill:#ee4938;fill-opacity:1;stroke:none;stroke-width:5;stroke-linecap:round;stroke-linejoin:round;stroke-miterlimit:4;stroke-dasharray:none;stroke-opacity:1" />
          <rect
             transform="matrix(0.99607708,0.08848981,0,1,0,0)"
             style="opacity:0.5;fill:#ee4938;fill-opacity:1;stroke:none;stroke-width:5;stroke-linecap:round;stroke-linejoin:round;stroke-miterlimit:4;stroke-dasharray:none;stroke-opacity:1"
             id="rect7350"
             width="89.136475"
             height="9.7969484"
             x="281.5462"
             y="908.23083" />
          <rect
             transform="matrix(0.99607708,0.08848981,0,1,0,0)"
             y="892.23083"
             x="281.5462"
             height="9.7969484"
             width="126.65931"
             id="rect7352"
             style="opacity:0.5;fill:#ee4938;fill-opacity:1;stroke:none;stroke-width:5;stroke-linecap:round;stroke-linejoin:round;stroke-miterlimit:4;stroke-dasharray:none;stroke-opacity:1" />
        </g>
        <rect
           style="fill:#ffffff;fill-opacity:1;stroke:#ee4938;stroke-width:5.00954056;stroke-linecap:round;stroke-linejoin:round;stroke-miterlimit:4;stroke-dasharray:none;stroke-opacity:1"
           id="rect7354"
           width="87.52533"
           height="174.38454"
           x="-2296.1509"
           y="1145.3763"
           transform="matrix(0.9961947,0.08715574,0,1,0,0)" />
        <ellipse
           style="opacity:0.5;fill:#ee4938;fill-opacity:1;stroke:none;stroke-width:5;stroke-linecap:round;stroke-linejoin:round;stroke-miterlimit:4;stroke-dasharray:none;stroke-opacity:1"
           id="ellipse7356"
           cx="-2252.3882"
           cy="1191.2164"
           transform="matrix(0.9961947,0.08715574,0,1,0,0)"
           rx="26.815359"
           ry="26.713318" />
        <rect
           style="opacity:0.5;fill:#ee4938;fill-opacity:1;stroke:none;stroke-width:5;stroke-linecap:round;stroke-linejoin:round;stroke-miterlimit:4;stroke-dasharray:none;stroke-opacity:1"
           id="rect7358"
           width="58.99379"
           height="11.170776"
           x="-2281.885"
           y="1225.286"
           transform="matrix(0.9961947,0.08715574,0,1,0,0)" />
        <g
           id="g7360"
           transform="matrix(0.53426637,0,0,0.53426637,-2342.7073,576.51914)">
          <rect
             transform="matrix(0.9961947,0.08715574,0,1,0,0)"
             style="opacity:0.5;fill:#ee4938;fill-opacity:1;stroke:none;stroke-width:5;stroke-linecap:round;stroke-linejoin:round;stroke-miterlimit:4;stroke-dasharray:none;stroke-opacity:1"
             id="rect7362"
             width="126.64436"
             height="9.7969484"
             x="122.48009"
             y="865.36182" />
          <rect
             transform="matrix(0.9961947,0.08715574,0,1,0,0)"
             y="881.2417"
             x="135.15523"
             height="9.7969484"
             width="101.29408"
             id="rect7364"
             style="opacity:0.5;fill:#ee4938;fill-opacity:1;stroke:none;stroke-width:5;stroke-linecap:round;stroke-linejoin:round;stroke-miterlimit:4;stroke-dasharray:none;stroke-opacity:1" />
          <rect
             transform="matrix(0.9961947,0.08715574,0,1,0,0)"
             style="opacity:0.5;fill:#ee4938;fill-opacity:1;stroke:none;stroke-width:5;stroke-linecap:round;stroke-linejoin:round;stroke-miterlimit:4;stroke-dasharray:none;stroke-opacity:1"
             id="rect7366"
             width="120.56029"
             height="9.7969484"
             x="125.52213"
             y="897.12152" />
          <rect
             transform="matrix(0.9961947,0.08715574,0,1,0,0)"
             y="913.0014"
             x="142.25331"
             height="9.7969484"
             width="87.097931"
             id="rect7368"
             style="opacity:0.5;fill:#ee4938;fill-opacity:1;stroke:none;stroke-width:5;stroke-linecap:round;stroke-linejoin:round;stroke-miterlimit:4;stroke-dasharray:none;stroke-opacity:1" />
        </g>
      </g>
      <g
         id="layer1-8"
         transform="matrix(0.66846269,0,0,0.73083024,1075.3514,1063.6302)">
        <g
           id="g7514"
           transform="translate(-2379.0328,-554.03309)">
          <rect
             ry="0"
             y="102.563"
             x="925.67731"
             height="473.39197"
             width="413.08728"
             id="rect7516"
             style="opacity:1;fill:#ffffff;fill-opacity:1;stroke:#ee4938;stroke-width:5;stroke-linecap:round;stroke-linejoin:round;stroke-miterlimit:4;stroke-dasharray:none;stroke-dashoffset:0;stroke-opacity:1" />
          <rect
             style="opacity:1;fill:#ffffff;fill-opacity:1;stroke:#ee4938;stroke-width:5;stroke-linecap:round;stroke-linejoin:round;stroke-miterlimit:4;stroke-dasharray:none;stroke-dashoffset:0;stroke-opacity:1"
             id="rect7518"
             width="353.50375"
             height="405.11014"
             x="955.46906"
             y="136.70392"
             ry="0" />
          <path
             id="path7520"
             d="m 955.82967,413.13227 0,129.65513 352.78253,0 0,-277.40167 -36.1828,12.06094 -24.1219,30.15235 -45.2285,15.07618 -30.1524,27.13712 -60.3047,15.07618 -30.1523,27.13712 -42.2133,9.04571 -39.1981,12.06094 z"
             style="fill:#ee4938;fill-opacity:0.39215686;fill-rule:evenodd;stroke:#ee4938;stroke-width:5;stroke-linecap:butt;stroke-linejoin:miter;stroke-miterlimit:4;stroke-dasharray:none;stroke-opacity:1" />
          <rect
             ry="0"
             y="175.60852"
             x="1021.0792"
             height="29.74872"
             width="222.28352"
             id="rect7522"
             style="opacity:0.5;fill:#ee4938;fill-opacity:1;stroke:#ee4938;stroke-width:4.17647362;stroke-linecap:round;stroke-linejoin:round;stroke-miterlimit:4;stroke-dasharray:none;stroke-opacity:1" />
        </g>
      </g>
    </g>
  </g>
</svg>
